<svg width="400" height="400" viewBox="0 0 400 400" fill="none" xmlns="http://www.w3.org/2000/svg">
<path d="M116.71 90.5258C112.898 92.8742 109.224 95.3331 105.689 97.8945C26.6509 155.155 26.6509 274.53 105.689 331.79C109.224 334.351 112.898 336.81 116.71 339.159C167.561 370.49 232.453 370.49 283.304 339.157C284.009 338.723 284.709 338.285 285.404 337.843C375.242 280.765 375.242 148.919 285.404 91.8418C284.709 91.3999 284.009 90.9618 283.304 90.5275C232.453 59.1942 167.561 59.1943 116.71 90.5258Z" fill="#90FC99"/>
<path d="M240.083 255.426C244.334 252.599 248.584 249.772 252.834 246.945C257.083 244.119 261.376 241.348 265.578 238.452C266.729 237.658 267.902 236.887 269.015 236.04C270.179 235.154 271.344 234.269 272.508 233.383C272.908 233.079 273.22 232.782 273.359 232.277C273.481 231.833 273.426 231.243 273.172 230.849C272.628 230.005 271.534 229.663 270.638 230.185C268.42 231.477 266.213 232.765 264.058 234.159C261.927 235.539 259.827 236.965 257.72 238.379C253.481 241.225 249.241 244.071 245.002 246.916C242.634 248.506 240.265 250.096 237.897 251.685C236.958 252.316 236.459 253.623 237.12 254.649C237.725 255.588 239.074 256.097 240.083 255.426Z" fill="#100F0E"/>
<path d="M249.982 277.36C252.998 274.326 256.168 271.447 259.479 268.739C260.308 268.061 261.147 267.395 261.992 266.737C262.404 266.416 261.645 267.002 262.059 266.685C262.16 266.609 262.26 266.531 262.361 266.454C262.562 266.3 262.764 266.147 262.967 265.995C263.392 265.674 263.82 265.356 264.249 265.041C265.99 263.764 267.778 262.557 269.554 261.33C270.537 260.65 271.531 259.985 272.534 259.334C273.559 258.669 274.524 257.899 275.525 257.196C276.396 256.584 276.888 255.384 276.257 254.404C275.634 253.438 274.479 253.144 273.465 253.672C272.497 254.177 271.514 254.67 270.574 255.227C269.637 255.782 268.738 256.423 267.838 257.038C265.96 258.32 264.159 259.708 262.381 261.125C259.006 263.817 255.772 266.685 252.696 269.714C250.955 271.428 249.266 273.194 247.629 275.007C247.046 275.653 246.944 276.731 247.629 277.36C248.292 277.968 249.326 278.019 249.982 277.36Z" fill="#100F0E"/>
<path d="M268.661 281.637C268.872 280.949 269.084 280.261 269.296 279.573L269.367 279.048C269.377 278.775 269.32 278.521 269.196 278.286C269.149 278.118 269.065 277.973 268.942 277.849C268.803 277.634 268.618 277.464 268.387 277.34L267.915 277.141L267.389 277.07C267.117 277.06 266.863 277.117 266.627 277.24C266.382 277.32 266.17 277.456 265.99 277.649C265.551 278.205 265.112 278.76 264.673 279.315C264.377 279.613 264.173 279.964 264.06 280.368C263.946 280.791 263.946 281.214 264.06 281.637L264.3 282.207C264.512 282.565 264.797 282.85 265.156 283.062C265.43 283.237 265.725 283.331 266.043 283.346C266.36 283.417 266.677 283.402 266.994 283.303C267.398 283.19 267.749 282.985 268.047 282.689C268.343 282.392 268.547 282.041 268.661 281.637Z" fill="#100F0E"/>
<path d="M282.399 253.899C283.664 253.899 284.875 252.787 284.816 251.482C284.758 250.172 283.754 249.065 282.399 249.065C281.135 249.065 279.924 250.177 279.982 251.482C280.041 252.792 281.044 253.899 282.399 253.899Z" fill="#100F0E"/>
<path d="M241.889 220.369C243.186 220.369 244.429 219.228 244.369 217.889C244.309 216.545 243.279 215.409 241.889 215.409C240.592 215.409 239.349 216.549 239.409 217.889C239.469 219.232 240.499 220.369 241.889 220.369Z" fill="#100F0E"/>
<path d="M170.751 260.461C205.251 231.927 239.107 202.617 272.342 172.618C276.626 164.042 252.346 148.283 246.235 143.496C224.241 164.212 200.597 185.276 178.603 205.991L176.463 207.275C167.391 195.047 159.424 192.964 150.352 180.736C139.31 183.374 133.078 189.876 125.953 198.714C125.097 202.139 132.015 213.447 131.616 214.091C144.247 229.892 157.281 245.37 170.751 260.461Z" fill="white"/>
<path d="M173.551 263.261C186.996 252.14 200.345 240.902 213.597 229.55C226.849 218.199 240.004 206.734 253.065 195.162C260.454 188.615 267.813 182.033 275.142 175.418C276.595 174.107 276.77 171.093 275.142 169.818C269.03 165.031 262.918 160.244 256.807 155.457C255.983 154.812 255.117 154.248 254.006 154.297C252.938 154.345 251.994 154.715 251.206 155.457C239.484 166.498 227.763 177.538 216.042 188.579C210.202 194.079 204.363 199.579 198.523 205.079C195.625 207.81 192.726 210.539 189.828 213.269C188.34 214.671 186.785 216.027 185.353 217.485C184.354 218.501 184.038 219.698 184.088 221.04C184.213 224.381 184.338 227.722 184.462 231.063C186.922 230.397 189.382 229.731 191.842 229.065C184.793 219.564 177.745 210.064 170.697 200.564C168.673 197.836 166.649 195.108 164.625 192.381C163.533 190.908 162.007 190.112 160.153 190.561C150.382 192.924 141.27 198.029 134.097 205.068C131.93 207.195 129.822 209.522 128.196 212.093C127.176 213.706 127.729 215.534 128.815 216.892C138.664 229.209 148.755 241.334 159.109 253.23C162.035 256.592 164.983 259.936 167.95 263.261C169.334 264.812 172.16 264.776 173.551 263.261C175.07 261.606 175.026 259.314 173.551 257.661C163.05 245.893 152.811 233.894 142.824 221.688C140.001 218.238 137.199 214.772 134.416 211.291L135.035 216.09C135.267 215.723 135.514 215.369 135.76 215.011C136.026 214.652 136.016 214.663 135.729 215.042C135.847 214.896 135.966 214.751 136.085 214.606C136.563 214.027 137.053 213.459 137.556 212.902C138.498 211.858 139.484 210.852 140.51 209.889C141.605 208.86 142.75 207.894 143.92 206.953C144.26 206.687 144.215 206.721 143.786 207.055C143.935 206.941 144.085 206.828 144.235 206.716C144.536 206.491 144.839 206.27 145.145 206.052C145.718 205.644 146.299 205.247 146.887 204.862C149.321 203.269 151.886 201.879 154.549 200.711C155.5 200.294 154.014 200.916 154.768 200.615C155.117 200.477 155.464 200.335 155.814 200.2C156.515 199.931 157.221 199.677 157.932 199.438C159.356 198.961 160.799 198.551 162.259 198.198L157.786 196.378C164.835 205.879 171.883 215.379 178.931 224.879C180.955 227.607 182.979 230.334 185.003 233.062C186.024 234.439 187.688 235.46 189.475 234.882C191.095 234.358 192.449 232.85 192.382 231.063C192.25 227.511 192.118 223.958 191.985 220.406L190.825 223.206C199.393 215.136 207.96 207.067 216.527 198.997C225.095 190.928 233.662 182.858 242.229 174.788C247.088 170.212 251.947 165.635 256.806 161.058H251.206C257.317 165.845 263.429 170.632 269.541 175.418V169.818C256.587 181.509 243.54 193.097 230.397 204.574C217.254 216.052 204.015 227.419 190.679 238.672C183.134 245.039 175.557 251.368 167.95 257.661C166.347 258.987 166.475 261.908 167.95 263.261C169.654 264.825 171.841 264.676 173.551 263.261Z" fill="white"/>
<path d="M180.315 207.275C176.974 202.427 175.571 201.053 172.41 196.086C169.25 191.118 165.937 186.249 162.653 181.359C160.765 178.545 158.827 175.773 156.865 173.01C155.436 170.997 153.375 170.055 150.927 170.593C143.66 172.191 136.706 175.375 130.72 179.794C127.585 182.108 124.627 184.629 122.007 187.518C120.548 189.126 119.065 190.822 117.933 192.677C116.322 195.315 115.757 198.26 116.32 201.292C116.712 203.395 117.824 205.372 119.09 207.074C120.521 208.996 122.026 210.867 123.506 212.751C126.171 216.142 128.856 219.519 131.56 222.879C136.896 229.51 142.329 236.061 147.839 242.549C154.083 249.9 160.422 257.17 166.853 264.358C167.725 265.333 169.453 266.03 170.75 265.972C172.287 265.903 173.466 265.338 174.647 264.358C189.061 252.405 203.38 240.34 217.583 228.138C231.743 215.974 245.793 203.682 259.731 191.264C267.579 184.272 275.391 177.24 283.169 170.169C285.149 168.369 285.404 164.255 283.169 162.507C271.76 153.583 260.377 144.626 248.985 135.682C247.851 134.792 246.654 134.015 245.125 134.083C243.652 134.149 242.354 134.66 241.266 135.682C232.689 143.742 224.112 151.802 215.535 159.862C206.959 167.921 198.436 176.037 189.898 184.136C187.477 186.432 185.055 188.729 182.634 191.026C181.445 192.154 180.255 193.281 179.066 194.41C177.835 195.579 176.746 196.896 175.512 198.058C173.552 199.904 173.51 203.483 175.512 205.321C177.613 207.25 178.175 210.272 182.776 205.321C183.841 204.318 185.028 203.434 186.122 202.46C187.214 201.486 188.265 200.462 189.333 199.463C191.514 197.423 193.696 195.383 195.877 193.343C200.154 189.342 204.43 185.342 208.707 181.342C217.303 173.302 225.866 165.228 234.424 157.148C239.278 152.566 244.131 147.984 248.985 143.401H241.266C252.681 152.321 264.107 161.229 275.506 170.169V162.507C261.635 175.086 247.651 187.542 233.555 199.87C219.502 212.16 205.338 224.323 191.066 236.358C183.03 243.135 174.962 249.874 166.853 256.564H174.647C162.047 242.407 149.824 227.918 137.906 213.182C134.575 209.063 131.248 204.937 128 200.752L128.861 201.866C128.091 200.86 127.372 199.829 126.848 198.672L127.402 199.985C127.147 199.367 126.967 198.756 126.874 198.093L127.071 199.553C127.027 199.07 127.036 198.607 127.098 198.126L126.902 199.585C126.988 199.106 127.118 198.656 127.291 198.201L126.738 199.512C127.165 198.509 127.756 197.617 128.413 196.752L127.557 197.86C130.158 194.522 133.2 191.542 136.535 188.943C136.168 189.227 135.8 189.511 135.433 189.795C139.08 186.984 143.066 184.655 147.308 182.865C146.877 183.047 146.446 183.229 146.014 183.411C146.879 183.051 147.751 182.711 148.606 182.328L147.316 182.872C149.406 182.025 151.542 181.31 153.723 180.734C152.017 180.283 150.312 179.832 148.607 179.382C149.501 180.536 150.395 181.69 151.289 182.844C151.403 182.991 152.099 183.881 151.637 183.295C150.964 182.441 152.288 184.137 152.252 184.092C152.362 184.228 152.477 184.359 152.589 184.493C153.108 185.121 153.62 185.756 154.136 186.387C155.978 188.641 157.821 190.894 159.663 193.148C160.584 194.275 161.505 195.402 162.426 196.529C162.574 196.709 162.72 196.891 162.869 197.07C162.978 197.202 163.308 197.403 162.969 197.182L162.848 197.023L163.52 197.893C163.632 198.024 163.763 198.144 163.879 198.272C164.384 198.832 164.863 199.418 165.355 199.991C167.248 202.194 169.141 204.397 171.034 206.6C173.236 209.163 171.36 206.774 173.466 209.416C174.357 210.533 177.151 210.207 178.175 209.416C179.235 208.596 180.315 207.275 180.315 207.275Z" fill="#100F0E"/>
<path d="M116.709 90.5262C102.562 99.1778 89.8897 110.429 80.1675 123.891C67.0256 141.935 58.7778 163.282 54.9526 185.186C43.6567 237.304 62.8963 292.429 105.455 324.94C114.188 331.645 123.669 337.485 133.583 342.282C135.07 342.984 136.968 343.817 138.459 344.513L139.283 344.857L142.585 346.228C144.403 346.982 146.591 347.748 148.431 348.453C182.568 360.551 220.519 360.251 254.4 347.396C277.203 338.808 298.055 324.717 313.963 306.209C338.515 277.801 350.317 239.271 346.856 201.954C342.98 158.484 319.344 119.532 282.388 96.2601C268.286 87.3462 252.77 80.6075 236.503 76.8707C234.825 76.4991 232.964 76.0585 231.288 75.6293C230.167 75.3829 227.211 74.6958 226.055 74.4224C222.662 73.7276 218.87 73.0102 215.464 72.4829C206.575 71.1613 197.435 70.4339 188.44 70.5159C176.261 70.6076 164.003 72.1425 152.217 75.2423C150.954 75.5643 148.191 76.4242 146.905 76.7757C145.733 77.1567 142.788 78.1499 141.655 78.5289C140.524 78.9449 137.639 80.0671 136.48 80.5051C135.341 80.9857 132.488 82.2227 131.387 82.6963C130.301 83.2066 127.505 84.5703 126.39 85.1034L123.124 86.8402C121.271 87.7713 118.525 89.4844 116.709 90.5262ZM116.709 90.5262C118.515 89.4633 121.267 87.7696 123.094 86.7855C125.405 85.452 128.892 83.6384 131.256 82.4213C132.349 81.8758 135.136 80.5558 136.259 79.9976C137.387 79.4735 140.242 78.2272 141.335 77.7188C143.798 76.6834 147.439 75.1774 149.956 74.2544C169.877 66.7134 191.239 62.4709 212.585 63.036C218.802 63.1824 225.436 63.7813 231.585 64.7438C275.441 73.1033 315.966 100.202 338.136 139.259C368.635 192.174 363.908 260.898 325.73 308.724C304.315 335.81 273.327 354.774 239.932 363.099C208.624 370.926 175.27 369.302 144.855 358.527C142.886 357.776 140.545 356.954 138.599 356.148C137.905 355.869 134.804 354.566 134.184 354.311C132.928 353.747 131.092 352.894 129.834 352.325C121.225 348.246 112.896 343.391 105.099 337.93C69.0389 313.261 45.3598 272.195 41.7025 228.693C40.445 213.444 41.0124 197.887 44.3825 182.93C46.2181 175.516 48.7551 168.206 51.834 161.227C65.0012 131.268 89.0563 107.389 116.709 90.5262Z" fill="#90FC99"/>
<path d="M314.76 84.8729C285.102 54.5951 241.697 41.0675 200.005 42.7445C179.446 42.8371 158.918 46.6318 139.93 54.6034C24.193 103.346 8.76325 259.761 112.808 330.142C211.603 395.656 344.272 332.998 356.164 215.012C356.54 210.671 356.759 204.043 356.948 199.627C358.73 157.909 345.035 114.526 314.76 84.8729ZM314.76 84.8729C348.676 118.902 372.045 167.176 366.86 216.06C355.73 327.918 239.739 397.41 135.843 354.529C12.2217 302.473 -4.26272 135.407 106.859 60.2302C129.646 44.8996 156.268 35.5175 183.571 32.761C232.495 27.4003 280.731 50.9483 314.76 84.8729Z" fill="#100F0E"/>
<path d="M166.226 155.221C167.487 155.221 168.696 154.112 168.637 152.81C168.579 151.503 167.578 150.398 166.226 150.398C164.964 150.398 163.756 151.507 163.814 152.81C163.873 154.116 164.874 155.221 166.226 155.221Z" fill="#100F0E"/>
<path d="M170.169 164.524C171.398 164.524 172.575 163.443 172.518 162.175C172.461 160.902 171.486 159.826 170.169 159.826C168.94 159.826 167.763 160.906 167.82 162.175C167.877 163.447 168.852 164.524 170.169 164.524Z" fill="#100F0E"/>
<path d="M176.577 156.543C177.756 156.543 178.886 155.506 178.832 154.288C178.777 153.066 177.841 152.033 176.577 152.033C175.397 152.033 174.267 153.07 174.322 154.288C174.376 155.51 175.313 156.543 176.577 156.543Z" fill="#100F0E"/>
<path d="M181.013 170.963C182.258 170.963 183.451 169.868 183.393 168.582C183.335 167.293 182.347 166.202 181.013 166.202C179.768 166.202 178.575 167.297 178.632 168.582C178.69 169.872 179.678 170.963 181.013 170.963Z" fill="#100F0E"/>
</svg>
