<svg xmlns="http://www.w3.org/2000/svg" width="390" height="875" viewBox="0 0 390 875" preserveAspectRatio="xMidYMin slice" fill="none">
  <rect x="0" y="0" width="390" height="875" fill="url(#des148-hiw-bg)"/>
  <g fill="#F56462" fill-opacity="0.2" mask="url(#des148-hiw-linemask)">
    <path d="M42.3613 50.4185C42.3613 46.2227 45.7627 42.8213 49.9585 42.8213H175.924C180.12 42.8213 183.521 46.2227 183.521 50.4185C183.521 54.6143 180.12 58.0156 175.924 58.0156H49.9585C45.7627 58.0156 42.3613 54.6143 42.3613 50.4185Z"/>
    <path d="M42.3613 106.613C42.3613 102.417 45.7627 99.0156 49.9585 99.0156H290.232C294.428 99.0156 297.829 102.417 297.829 106.613C297.829 110.809 294.428 114.21 290.232 114.21H49.9585C45.7627 114.21 42.3613 110.809 42.3613 106.613Z"/>
    <path d="M42.3613 138.807C42.3613 134.611 45.7627 131.21 49.9585 131.21H166.122C170.317 131.21 173.719 134.611 173.719 138.807C173.719 143.003 170.317 146.404 166.122 146.404H49.9585C45.7627 146.404 42.3613 143.003 42.3613 138.807Z"/>
    <path d="M193.719 138.807C193.719 134.611 197.12 131.21 201.316 131.21H338.555C342.751 131.21 346.152 134.611 346.152 138.807C346.152 143.003 342.751 146.404 338.555 146.404H201.316C197.12 146.404 193.719 143.003 193.719 138.807Z"/>
    <path d="M42.3613 171.001C42.3613 166.806 45.7627 163.404 49.9585 163.404H232.665C236.86 163.404 240.262 166.806 240.262 171.001C240.262 175.197 236.86 178.599 232.665 178.599H49.9585C45.7627 178.599 42.3613 175.197 42.3613 171.001Z"/>
    <path d="M260.262 171.001C260.262 166.806 263.663 163.404 267.859 163.404H338.764C342.96 163.404 346.361 166.806 346.361 171.001C346.361 175.197 342.96 178.599 338.764 178.599H267.859C263.663 178.599 260.262 175.197 260.262 171.001Z"/>
    <path d="M42.3613 203.196C42.3613 199 45.7627 195.599 49.9585 195.599H107.99C112.186 195.599 115.587 199 115.587 203.196C115.587 207.392 112.186 210.793 107.99 210.793H49.9585C45.7627 210.793 42.3613 207.392 42.3613 203.196Z"/>
    <path d="M135.587 203.196C135.587 199 138.988 195.599 143.184 195.599H313.764C317.96 195.599 321.361 199 321.361 203.196C321.361 207.392 317.96 210.793 313.764 210.793H143.184C138.988 210.793 135.587 207.392 135.587 203.196Z"/>
    <path d="M42.3613 235.39C42.3613 231.194 45.7627 227.793 49.9585 227.793H191.471C195.667 227.793 199.068 231.194 199.068 235.39C199.068 239.586 195.667 242.987 191.471 242.987H49.9585C45.7627 242.987 42.3613 239.586 42.3613 235.39Z"/>
    <path d="M219.068 235.39C219.068 231.194 222.47 227.793 226.666 227.793H338.764C342.96 227.793 346.361 231.194 346.361 235.39C346.361 239.586 342.96 242.987 338.764 242.987H226.666C222.47 242.987 219.068 239.586 219.068 235.39Z"/>
    <path d="M42.3613 267.584C42.3613 263.389 45.7627 259.987 49.9585 259.987H145.7C149.896 259.987 153.297 263.389 153.297 267.584C153.297 271.78 149.896 275.182 145.7 275.182H49.9585C45.7627 275.182 42.3613 271.78 42.3613 267.584Z"/>
    <path d="M173.297 267.584C173.297 263.389 176.698 259.987 180.894 259.987H301.764C305.96 259.987 309.361 263.389 309.361 267.584C309.361 271.78 305.96 275.182 301.764 275.182H180.894C176.698 275.182 173.297 271.78 173.297 267.584Z"/>
    <path d="M42.3613 299.779C42.3613 295.583 45.7627 292.182 49.9585 292.182H253.292C257.488 292.182 260.89 295.583 260.89 299.779C260.89 303.975 257.488 307.376 253.292 307.376H49.9585C45.7627 307.376 42.3613 303.975 42.3613 299.779Z"/>
    <path d="M280.89 299.779C280.89 295.583 284.291 292.182 288.487 292.182H338.764C342.96 292.182 346.361 295.583 346.361 299.779C346.361 303.975 342.96 307.376 338.764 307.376H288.487C284.291 307.376 280.89 303.975 280.89 299.779Z"/>
    <path d="M42.3613 355.973C42.3613 351.777 45.7627 348.376 49.9585 348.376H218.821C223.017 348.376 226.418 351.777 226.418 355.973C226.418 360.169 223.017 363.57 218.821 363.57H49.9585C45.7627 363.57 42.3613 360.169 42.3613 355.973Z"/>
    <path d="M246.418 355.973C246.418 351.777 249.819 348.376 254.015 348.376H313.764C317.96 348.376 321.361 351.777 321.361 355.973C321.361 360.169 317.96 363.57 313.764 363.57H254.015C249.819 363.57 246.418 360.169 246.418 355.973Z"/>
    <path d="M42.3613 388.167C42.3613 383.972 45.7627 380.57 49.9585 380.57H150.949C155.145 380.57 158.546 383.972 158.546 388.167C158.546 392.363 155.145 395.765 150.949 395.765H49.9585C45.7627 395.765 42.3613 392.363 42.3613 388.167Z"/>
    <path d="M178.546 388.167C178.546 383.972 181.947 380.57 186.143 380.57H338.764C342.96 380.57 346.361 383.972 346.361 388.167C346.361 392.363 342.96 395.765 338.764 395.765H186.143C181.947 395.765 178.546 392.363 178.546 388.167Z"/>
  </g>
  <defs>
    <linearGradient id="des148-hiw-bg" x1="195" y1="0" x2="195" y2="875" gradientUnits="userSpaceOnUse">
      <stop offset="0" stop-color="white"/>
      <stop offset="1" stop-color="white"/>
    </linearGradient>
    <linearGradient id="des148-hiw-linemaskgrad" x1="194.361" y1="42.8213" x2="194.361" y2="435.561" gradientUnits="userSpaceOnUse">
      <stop offset="0.502966" stop-color="white" stop-opacity="1"/>
      <stop offset="1" stop-color="white" stop-opacity="0"/>
    </linearGradient>
    <mask id="des148-hiw-linemask" maskUnits="userSpaceOnUse" x="0" y="0" width="390" height="875">
      <rect x="0" y="0" width="390" height="875" fill="url(#des148-hiw-linemaskgrad)"/>
    </mask>
  </defs>
</svg>
