<svg width="145" height="18" viewBox="0 0 145 18" fill="none" xmlns="http://www.w3.org/2000/svg">
<g clip-path="url(#clip0_7508_20)">
<path d="M14.4878 0.078125C14.4878 6.52919 18.7265 11.6537 25.2295 11.6537V17.5647C16.363 17.5647 10.9922 9.52787 10.9922 0.078125H14.4899H14.4878Z" fill="#F56462"></path>
<path d="M10.7417 0.078125C10.7417 6.52919 6.50507 11.6537 0 11.6537V17.5647C8.86859 17.5647 14.2394 9.52787 14.2394 0.078125H10.7417Z" fill="#F56462"></path>
<path d="M50.1892 3.85156C45.5723 3.85156 43.0273 6.21292 43.0273 10.5035V10.8363C43.0273 15.1247 45.5702 17.4882 50.1892 17.4882C54.8082 17.4882 57.3381 15.0642 57.3381 10.8363V10.5035C57.3381 6.27557 54.7326 3.85156 50.1892 3.85156ZM53.2095 11.0134C53.2095 13.4677 52.1919 14.7121 50.187 14.7121C48.1821 14.7121 47.1538 13.4677 47.1538 11.0134V10.3264C47.1538 7.87214 48.1735 6.62772 50.187 6.62772C52.2006 6.62772 53.2095 7.87214 53.2095 10.3264V11.0134Z" fill="#100F0E"></path>
<path d="M67.1182 3.89959C65.0701 3.89959 63.4584 4.67951 62.4279 6.1594C62.6072 5.31467 62.685 4.54772 62.685 3.6749V0H58.6406V17.1906H62.7238L62.7195 16.8881C62.7109 16.4539 62.631 15.9008 62.4776 15.2376C63.4951 16.6829 65.0528 17.4153 67.1182 17.4153C70.8644 17.4153 72.8455 15.1317 72.8455 10.8108V10.5148C72.8455 6.18749 70.8644 3.89959 67.1182 3.89959ZM68.7752 10.3852V10.9296C68.7752 13.4228 67.7793 14.6866 65.8133 14.6866C63.2272 14.6866 62.685 12.6105 62.685 10.8692V10.4414C62.685 8.68928 63.2272 6.60229 65.8133 6.60229C67.7793 6.60229 68.7752 7.87479 68.7752 10.3831V10.3852Z" fill="#100F0E"></path>
<path d="M78.2384 0H74.1465V17.1906H86.4653V13.9996H78.2384V0Z" fill="#100F0E"></path>
<path d="M126.653 3.6749C126.653 4.54988 126.73 5.31899 126.912 6.16805C125.883 4.69895 124.272 3.92335 122.221 3.92335C118.475 3.92335 116.494 6.20261 116.494 10.5148V10.8108C116.494 15.1317 118.475 17.4153 122.221 17.4153C124.287 17.4153 125.845 16.6829 126.862 15.2376C126.709 15.9008 126.627 16.4539 126.62 16.8881L126.616 17.1906H130.699V0H126.655V3.6749H126.653ZM126.653 10.4436V10.8713C126.653 12.6126 126.11 14.6888 123.524 14.6888C121.567 14.6888 120.573 13.425 120.573 10.9318V10.3874C120.573 7.87911 121.567 6.60662 123.524 6.60662C126.11 6.60662 126.653 8.69576 126.653 10.4457V10.4436Z" fill="#100F0E"></path>
<path d="M100.738 11.5829L100.742 11.544C100.796 11.0104 100.833 10.5459 100.833 10.0253C100.833 6.10839 98.3095 3.85938 93.9087 3.85938C89.5079 3.85938 86.6777 6.21425 86.6777 10.3212V11.0083C86.6777 15.1757 89.2292 17.4701 93.8612 17.4701C97.8753 17.4701 100.299 15.9276 100.872 13.0088L100.941 12.6545H96.8447L96.7843 12.8727C96.4343 14.1409 95.5269 14.7307 93.9325 14.7307C91.9794 14.7307 90.9187 13.7412 90.7804 11.786C90.7804 11.7839 90.7761 11.7082 90.7718 11.5851H100.74L100.738 11.5829ZM90.8301 9.14596C91.0915 7.4565 92.1307 6.59881 93.9195 6.59881C95.7084 6.59881 96.7108 7.48027 96.7497 9.14596H90.8279H90.8301Z" fill="#100F0E"></path>
<path d="M115.724 14.755C114.992 14.7139 114.992 14.6513 114.992 14.0463V8.34494C114.992 5.33762 112.976 3.875 108.826 3.875C106.273 3.875 104.43 4.45832 103.347 5.60767C102.665 6.33358 102.317 7.26256 102.308 8.36655H106.314C106.357 7.86317 106.51 7.46565 106.774 7.18047C107.167 6.75702 107.832 6.54314 108.753 6.54314C110.328 6.54314 110.969 7.05516 110.969 8.30822V8.75975L107.845 9.33226C104.959 9.87021 102.008 10.8381 102.008 13.9275V13.975C102.008 16.2133 103.537 17.4966 106.206 17.4966C108.649 17.4966 110.535 16.5935 111.563 14.9429C111.52 15.7077 111.658 16.2457 111.996 16.654C112.475 17.2373 113.322 17.4987 114.741 17.4987C115.061 17.4987 115.42 17.4685 115.755 17.4145L116.003 17.3734V14.7722L115.722 14.7571L115.724 14.755ZM110.974 11.618C110.974 13.2988 109.485 14.6167 107.584 14.6167C106.091 14.6167 106.091 13.9102 106.091 13.6445V13.597C106.091 12.6658 106.858 12.1992 109.135 11.7541L110.974 11.3955V11.6158V11.618Z" fill="#100F0E"></path>
<path d="M37.6213 0V11.6664C37.6213 13.5481 36.8392 14.4641 35.2275 14.4641C33.6158 14.4641 32.8748 13.5459 32.635 11.5778H28.4805C28.7743 15.499 31.0298 17.4887 35.1908 17.4887C39.3518 17.4887 41.7239 15.5271 41.7239 11.9645V0H37.6213Z" fill="#100F0E"></path>
<path d="M140.51 9.36035L138.564 8.89802C136.606 8.4508 135.913 8.08137 135.913 7.49157C135.913 6.84776 136.678 6.51937 138.188 6.51937C139.925 6.51937 140.7 6.99035 140.787 8.09217L140.808 8.36655H144.639V8.06841C144.619 4.60307 141.12 3.875 138.188 3.875C134.213 3.875 132.022 5.30305 132.022 7.89341C132.022 10.3304 134.418 11.2075 136.218 11.6547L138.173 12.1408C140.083 12.6183 140.981 12.9316 140.981 13.7374C140.981 14.6275 139.648 14.8155 138.527 14.8155C136.697 14.8155 135.749 14.1824 135.628 12.8797L135.606 12.6572H131.691L131.698 12.9164C131.774 15.9821 134.012 17.4728 138.538 17.4728C143.878 17.4728 145 15.254 145 13.3939C145 10.7754 142.839 9.90694 140.504 9.35819L140.51 9.36035Z" fill="#100F0E"></path>
</g>
<defs>
<clipPath id="clip0_7508_20">
<rect width="145" height="18" fill="white"></rect>
</clipPath>
</defs>
</svg>