<svg xmlns="http://www.w3.org/2000/svg" viewBox="0 0 85 30" fill="none"><path fill="#fff" d="M9.785 29.988c-2.508-.1-4.56-.786-6.164-2.06a12 12 0 0 1-1.281-1.283c-.65-.818-1.093-1.614-1.388-2.497-.908-2.72-.44-6.288 1.336-10.205C3.81 10.59 6.158 7.265 10.254 2.66c.604-.677 2.4-2.66 2.412-2.66.005 0-.093.17-.217.377C11.384 2.16 10.473 4.26 9.977 6.08c-.798 2.92-.702 5.425.281 7.367.678 1.339 1.841 2.498 3.148 3.138 2.289 1.122 5.64 1.215 9.732.272.282-.065 14.242-3.771 31.023-8.236C70.944 4.156 84.676.506 84.678.51c.005.004-38.987 16.69-59.229 25.345-3.206 1.37-4.063 1.717-5.57 2.246-3.852 1.353-7.303 1.999-10.093 1.888"/></svg>
