<svg xmlns="http://www.w3.org/2000/svg" viewBox="0 0 26 30" fill="none"><g clip-path="url(#apple-a)"><path fill="#fff" d="M24.314 10.228c-.174.135-3.247 1.866-3.247 5.716 0 4.452 3.91 6.027 4.027 6.066-.018.096-.621 2.157-2.061 4.258-1.284 1.848-2.626 3.693-4.666 3.693s-2.565-1.185-4.92-1.185c-2.295 0-3.112 1.224-4.978 1.224s-3.168-1.71-4.665-3.81C2.07 23.723.668 19.892.668 16.256c0-5.833 3.793-8.926 7.525-8.926 1.983 0 3.637 1.302 4.882 1.302 1.185 0 3.033-1.38 5.29-1.38.854 0 3.927.078 5.949 2.976m-7.02-5.446c.932-1.107 1.592-2.643 1.592-4.179A3 3 0 0 0 18.83 0c-1.518.057-3.324 1.011-4.413 2.274-.855.972-1.653 2.508-1.653 4.066 0 .234.039.468.057.543.096.018.252.039.408.039 1.362 0 3.075-.912 4.065-2.14"/></g><defs><clipPath id="apple-a"><path fill="#fff" d="M.5 0h25v30H.5z"/></clipPath></defs></svg>
