<svg xmlns="http://www.w3.org/2000/svg" viewBox="0 0 102 30" fill="none"><path fill="#fff" d="M63.157 23.46C57.372 27.726 48.987 30 41.767 30c-10.123 0-19.236-3.744-26.13-9.971-.542-.49-.056-1.157.594-.776 7.44 4.33 16.64 6.933 26.143 6.933 6.409 0 13.46-1.326 19.942-4.077.98-.416 1.799.641.84 1.352"/><path fill="#fff" d="M65.562 20.709c-.737-.945-4.888-.446-6.752-.225-.567.069-.654-.425-.143-.78 3.307-2.327 8.732-1.656 9.365-.876.633.785-.165 6.223-3.272 8.819-.477.398-.932.186-.72-.343.698-1.742 2.263-5.646 1.522-6.595M58.94 3.276V1.014c0-.342.26-.572.572-.572H69.64c.326 0 .586.234.586.572V2.95c-.005.325-.278.75-.763 1.421l-5.248 7.493c1.95-.048 4.008.242 5.776 1.239.4.225.508.555.538.88v2.413c0 .33-.364.715-.746.516-3.115-1.634-7.253-1.811-10.699.017-.35.191-.719-.19-.719-.52v-2.292c0-.368.004-.997.373-1.556l6.08-8.718h-5.292c-.325 0-.585-.23-.585-.568M21.998 17.39h-3.08a.58.58 0 0 1-.551-.524V1.053c0-.316.264-.567.594-.567h2.873a.58.58 0 0 1 .559.528v2.067h.056c.75-1.997 2.158-2.93 4.056-2.93 1.928 0 3.133.933 4 2.93.745-1.997 2.44-2.93 4.255-2.93 1.291 0 2.704.534 3.566 1.73.975 1.33.776 3.263.776 4.957l-.004 9.98a.58.58 0 0 1-.594.572h-3.077a.586.586 0 0 1-.554-.572v-8.38c0-.668.06-2.332-.087-2.965-.23-1.061-.919-1.36-1.811-1.36-.746 0-1.526.498-1.842 1.295-.316.798-.286 2.132-.286 3.03v8.38a.58.58 0 0 1-.594.572h-3.076a.58.58 0 0 1-.555-.572l-.004-8.38c0-1.764.29-4.36-1.898-4.36-2.215 0-2.128 2.53-2.128 4.36v8.38a.58.58 0 0 1-.594.572M78.943.152c4.572 0 7.046 3.926 7.046 8.918 0 4.823-2.734 8.65-7.046 8.65-4.49 0-6.933-3.927-6.933-8.819 0-4.923 2.474-8.75 6.933-8.75m.026 3.228c-2.27 0-2.413 3.094-2.413 5.023 0 1.932-.03 6.058 2.387 6.058 2.388 0 2.5-3.328 2.5-5.356 0-1.335-.056-2.93-.459-4.195-.346-1.1-1.035-1.53-2.015-1.53M91.918 17.39h-3.069a.586.586 0 0 1-.554-.572L88.29 1.001a.583.583 0 0 1 .594-.515h2.856a.59.59 0 0 1 .55.442v2.418h.056c.863-2.163 2.072-3.194 4.2-3.194 1.382 0 2.73.498 3.596 1.863.806 1.266.806 3.393.806 4.923v9.954c-.034.277-.29.498-.593.498h-3.09c-.282-.022-.516-.23-.546-.498v-8.59c0-1.728.2-4.259-1.928-4.259-.75 0-1.44.503-1.781 1.266-.434.966-.49 1.928-.49 2.994v8.515a.59.59 0 0 1-.602.572M50.867 9.837v-.668c-2.227 0-4.58.477-4.58 3.103 0 1.33.689 2.232 1.872 2.232.867 0 1.642-.533 2.132-1.4.607-1.066.576-2.067.576-3.267m3.107 7.51a.64.64 0 0 1-.728.073c-1.022-.85-1.204-1.244-1.768-2.054-1.69 1.725-2.886 2.24-5.078 2.24-2.592 0-4.611-1.599-4.611-4.8 0-2.501 1.356-4.204 3.285-5.036 1.672-.737 4.008-.867 5.793-1.07v-.4c0-.732.057-1.598-.372-2.231-.377-.568-1.097-.802-1.73-.802-1.174 0-2.222.603-2.478 1.85-.052.278-.256.551-.533.564l-2.99-.32c-.251-.057-.529-.26-.46-.646C42.995 1.092 46.266 0 49.195 0c1.5 0 3.459.399 4.642 1.534 1.499 1.4 1.356 3.267 1.356 5.3v4.801c0 1.443.598 2.076 1.161 2.856.2.277.243.61-.008.819-.629.524-1.747 1.5-2.362 2.045zm-43.498-7.51v-.668c-2.227 0-4.58.477-4.58 3.103 0 1.33.689 2.232 1.872 2.232.866 0 1.642-.533 2.132-1.4.606-1.066.576-2.067.576-3.267m3.107 7.51a.64.64 0 0 1-.728.073c-1.023-.85-1.205-1.244-1.768-2.054-1.69 1.725-2.886 2.24-5.079 2.24-2.591 0-4.61-1.599-4.61-4.8 0-2.501 1.356-4.204 3.284-5.036 1.673-.737 4.009-.867 5.794-1.07v-.4c0-.732.056-1.598-.373-2.231-.377-.568-1.096-.802-1.729-.802-1.174 0-2.223.603-2.478 1.85-.052.278-.256.551-.534.564l-2.99-.32c-.25-.057-.528-.26-.459-.646C2.603 1.092 5.873 0 8.803 0c1.5 0 3.458.399 4.641 1.534 1.5 1.4 1.357 3.267 1.357 5.3v4.801c0 1.443.598 2.076 1.161 2.856.2.277.243.61-.009.819-.628.524-1.746 1.5-2.361 2.045z"/></svg>
