<svg xmlns="http://www.w3.org/2000/svg" viewBox="0 0 115 30" fill="none"><g fill="#fff" clip-path="url(#paypal-a)"><path d="M36.724 5.999a.47.47 0 0 0-.467.4L33.56 23.493a.438.438 0 0 0 .432.505h3.197c.233 0 .43-.169.467-.399l.792-5.02c.036-.23.234-.4.467-.4h2.907a6.894 6.894 0 0 0 6.805-5.835C49.16 8.96 46.514 6.006 42.765 6zm3.107 3.816h2.326c1.915 0 2.538 1.13 2.34 2.38-.196 1.251-1.165 2.173-3.017 2.173h-2.367zm15.3 1.162c-.808.003-1.737.169-2.78.603-2.392.997-3.54 3.058-4.028 4.56 0 0-1.553 4.583 1.955 7.101 0 0 3.254 2.424 6.916-.15l-.063.403a.44.44 0 0 0 .431.505h3.035a.47.47 0 0 0 .467-.399l1.846-11.707a.438.438 0 0 0-.431-.506h-3.035a.47.47 0 0 0-.467.4l-.1.63s-1.325-1.448-3.747-1.44m.099 3.698q.523.001.953.14c1.31.42 2.052 1.679 1.837 3.042-.265 1.68-1.642 2.915-3.408 2.915q-.523 0-.953-.14c-1.31-.42-2.056-1.678-1.841-3.041.265-1.68 1.646-2.916 3.412-2.916m25.198-8.676c-.233 0-.43.17-.467.4l-2.696 17.095a.438.438 0 0 0 .433.505h3.197c.232 0 .43-.169.467-.399l.792-5.02c.036-.23.234-.4.467-.4h2.906a6.89 6.89 0 0 0 6.805-5.835C92.862 8.96 90.217 6.006 86.468 6zm3.108 3.816h2.325c1.915 0 2.538 1.13 2.341 2.38s-1.165 2.173-3.017 2.173h-2.367zm15.298 1.162c-.807.003-1.736.169-2.778.603-2.393.997-3.541 3.058-4.029 4.56 0 0-1.552 4.583 1.956 7.101 0 0 3.253 2.424 6.915-.15l-.063.403a.434.434 0 0 0 .433.506h3.034c.233 0 .431-.17.467-.4l1.847-11.707a.44.44 0 0 0-.432-.506h-3.035a.47.47 0 0 0-.467.4l-.1.63s-1.325-1.448-3.748-1.44m.1 3.698q.523.001.953.14c1.309.42 2.052 1.679 1.837 3.042-.265 1.68-1.642 2.915-3.408 2.915q-.523 0-.953-.14c-1.31-.42-2.056-1.678-1.841-3.041.265-1.68 1.646-2.916 3.412-2.916M64.35 11.387a.355.355 0 0 0-.338.464l3.328 10.325-3.009 4.865a.355.355 0 0 0 .301.541h3.556a.59.59 0 0 0 .506-.285l9.292-15.372a.355.355 0 0 0-.304-.538h-3.555a.59.59 0 0 0-.509.29l-3.657 6.175-1.857-6.13a.47.47 0 0 0-.453-.335zm45.713-5.388a.47.47 0 0 0-.467.4L106.9 23.492a.44.44 0 0 0 .432.506h3.197c.232 0 .431-.17.467-.399l2.696-17.095a.437.437 0 0 0-.432-.506zm-99.991 0a.865.865 0 0 0-.854.73l-1.42 9a.865.865 0 0 1 .855-.73h4.158c4.185 0 7.736-3.053 8.385-7.19a7 7 0 0 0 .082-.933c-1.064-.558-2.313-.877-3.682-.877z"/><path d="M21.278 6.876a7 7 0 0 1-.082.933c-.649 4.137-4.2 7.19-8.385 7.19H8.653a.865.865 0 0 0-.854.73L5.677 29.19a.702.702 0 0 0 .693.81h4.514a.865.865 0 0 0 .854-.73l1.188-7.54a.865.865 0 0 1 .855-.73h2.657c4.185 0 7.736-3.053 8.385-7.19.461-2.937-1.018-5.609-3.545-6.934"/><path d="M4.944 0a.864.864 0 0 0-.854.73L.55 23.187a.703.703 0 0 0 .693.812h5.253L9.218 6.73a.865.865 0 0 1 .854-.73h7.524c1.37 0 2.618.319 3.682.876C21.35 3.11 18.242 0 13.969 0z"/></g><defs><clipPath id="paypal-a"><path fill="#fff" d="M.5 0h114v30H.5z"/></clipPath></defs></svg>
