<svg xmlns="http://www.w3.org/2000/svg" viewBox="0 0 94 30" fill="none"><g fill="#fff" clip-path="url(#visa-a)"><path d="M40.972 29.567h-7.509L38.16.527h7.508zM68.193 1.236C66.712.65 64.363 0 61.458 0c-7.416 0-12.637 3.954-12.67 9.608-.061 4.17 3.74 6.488 6.582 7.878 2.905 1.421 3.892 2.35 3.892 3.616-.03 1.945-2.347 2.842-4.51 2.842-2.997 0-4.604-.462-7.045-1.545l-.988-.464-1.051 6.52c1.761.802 5.006 1.514 8.374 1.545 7.88 0 13.009-3.893 13.07-9.918.03-3.306-1.977-5.839-6.303-7.909-2.627-1.328-4.235-2.224-4.235-3.584.03-1.236 1.36-2.502 4.325-2.502 2.441-.062 4.235.525 5.594 1.112l.679.308zm9.98 18.044c.618-1.67 2.998-8.126 2.998-8.126-.031.062.617-1.7.988-2.78l.525 2.502s1.422 6.951 1.73 8.403zM87.443.525h-5.81c-1.79 0-3.151.525-3.924 2.41l-11.154 26.63h7.88s1.297-3.583 1.575-4.355h9.641c.216 1.02.896 4.356.896 4.356H93.5zM27.191.526 19.838 20.33l-.804-4.017C17.674 11.68 13.41 6.643 8.652 4.14l6.736 25.396h7.94L35.133.526z"/><path d="M13.009.526H.927l-.123.587c9.424 2.41 15.665 8.22 18.23 15.201L16.407 2.968c-.432-1.855-1.76-2.38-3.398-2.442"/></g><defs><clipPath id="visa-a"><path fill="#fff" d="M.5 0h93v30H.5z"/></clipPath></defs></svg>
