<svg xmlns="http://www.w3.org/2000/svg" viewBox="0 0 113 30" fill="none"><g clip-path="url(#netflix-a)"><path fill="#fff" d="M16.078 28.066c-1.67.294-3.37.381-5.127.616L5.589 12.979v16.377c-1.67.175-3.193.41-4.775.644V0h4.453l6.094 17.022V0h4.717zm9.228-17.08c1.817 0 4.6-.088 6.27-.088v4.688c-2.08 0-4.512 0-6.27.088v6.973c2.754-.176 5.508-.41 8.291-.499v4.512L20.62 27.685V0h12.978v4.688h-8.29zM51.03 4.688h-4.864V26.25c-1.581 0-3.164 0-4.687.058V4.688h-4.863V0H51.03zm7.617 5.976h6.416v4.688h-6.416v10.634h-4.6V0h13.096v4.688h-8.496zm16.113 11.22c2.666.06 5.361.265 7.969.41v4.63c-4.19-.264-8.379-.527-12.656-.616V0h4.687zm11.924 5.362c1.494.088 3.076.176 4.6.352V0h-4.6zM111.82 0l-5.947 14.268L111.82 30c-1.758-.234-3.516-.557-5.274-.85l-3.369-8.671-3.427 7.968c-1.7-.293-3.34-.38-5.04-.615l6.036-13.74L95.296 0h5.039l3.077 7.88L106.693 0z"/></g><defs><clipPath id="netflix-a"><path fill="#fff" d="M.5 0h112v30H.5z"/></clipPath></defs></svg>
