<svg xmlns="http://www.w3.org/2000/svg" viewBox="0 0 143 30" fill="none"><g fill="#fff" clip-path="url(#microsoft-a)"><path d="M59.917 6v18h-3.125V9.875h-.042L51.167 24h-2.083L43.375 9.875h-.041V24h-2.875V6h4.5l5.166 13.333h.084L55.667 6zM62.5 7.375c0-.5.167-.917.542-1.25s.792-.5 1.292-.5c.541 0 1 .167 1.333.5s.542.75.542 1.25-.167.916-.542 1.25-.792.5-1.333.5c-.542 0-.959-.167-1.292-.5-.333-.375-.542-.792-.542-1.25m3.375 3.708V24h-3.041V11.083zm9.209 10.708a3.5 3.5 0 0 0 1.5-.333 6.6 6.6 0 0 0 1.5-.833v2.833c-.5.292-1.042.5-1.667.625s-1.292.209-2.042.209c-1.916 0-3.458-.584-4.625-1.792-1.208-1.209-1.791-2.75-1.791-4.584 0-2.083.625-3.791 1.833-5.125 1.208-1.333 2.917-2 5.167-2 .583 0 1.166.084 1.708.209a5.7 5.7 0 0 1 1.375.5v2.916c-.458-.333-.958-.625-1.417-.791-.5-.167-1-.292-1.5-.292-1.208 0-2.166.375-2.916 1.167-.75.791-1.084 1.833-1.084 3.166 0 1.292.375 2.334 1.084 3.042.708.709 1.666 1.084 2.875 1.084m11.625-10.916c.25 0 .458 0 .666.041q.313.063.5.125v3.084a1.9 1.9 0 0 0-.708-.334c-.333-.083-.667-.166-1.125-.166-.75 0-1.375.333-1.875.958s-.792 1.583-.792 2.917V24h-3.041V11.083h3.041v2.042h.042c.292-.709.708-1.25 1.25-1.667a3.67 3.67 0 0 1 2.042-.583m1.333 6.875c0-2.125.625-3.834 1.792-5.084q1.812-1.875 5-1.875c2 0 3.583.584 4.708 1.792s1.708 2.833 1.708 4.875c0 2.084-.625 3.75-1.791 5-1.209 1.25-2.834 1.875-4.917 1.875q-3 0-4.75-1.75c-1.167-1.208-1.75-2.833-1.75-4.833m3.167-.125c0 1.333.291 2.375.916 3.083s1.5 1.084 2.625 1.084c1.084 0 1.959-.334 2.542-1.084.583-.708.875-1.75.875-3.166 0-1.376-.292-2.417-.875-3.167-.583-.709-1.458-1.084-2.5-1.084-1.125 0-1.958.375-2.583 1.125-.709.792-1 1.834-1 3.209m14.583-3.125c0 .416.125.791.417 1.041.291.25.875.542 1.833.917 1.208.5 2.083 1.042 2.542 1.625.5.625.75 1.334.75 2.209 0 1.208-.459 2.166-1.417 2.916-.917.75-2.208 1.084-3.792 1.084-.541 0-1.125-.084-1.791-.209-.667-.125-1.209-.291-1.667-.5v-3a7.3 7.3 0 0 0 1.792.917c.625.208 1.208.333 1.75.333.666 0 1.208-.083 1.5-.291.333-.209.5-.5.5-.959 0-.416-.167-.75-.5-1.083-.334-.292-1-.625-1.917-1-1.125-.459-1.917-1-2.375-1.584-.458-.583-.708-1.333-.708-2.25q0-1.75 1.375-2.875c.916-.75 2.125-1.125 3.583-1.125.458 0 .958.042 1.5.167s1.042.25 1.417.375v2.958c-.417-.25-.875-.5-1.417-.708a4.4 4.4 0 0 0-1.583-.292c-.584 0-1.042.125-1.334.334-.291.291-.458.583-.458 1m6.833 3.25c0-2.125.625-3.834 1.792-5.084q1.812-1.875 5-1.875c2 0 3.583.584 4.708 1.792s1.709 2.833 1.709 4.875c0 2.084-.625 3.75-1.792 5-1.208 1.25-2.833 1.875-4.917 1.875q-3 0-4.75-1.75c-1.125-1.208-1.75-2.833-1.75-4.833m3.167-.125c0 1.333.292 2.375.917 3.083s1.5 1.084 2.625 1.084c1.083 0 1.958-.334 2.541-1.084.584-.708.875-1.75.875-3.166 0-1.376-.291-2.417-.875-3.167-.583-.709-1.458-1.084-2.5-1.084-1.125 0-1.958.375-2.583 1.125-.667.792-1 1.834-1 3.209m20.167-4.042h-4.542V24h-3.083V13.583h-2.167v-2.5h2.167V9.291c0-1.333.458-2.458 1.333-3.333s2-1.291 3.375-1.291c.375 0 .708.041 1 .041s.542.083.75.167V7.5a5 5 0 0 0-.542-.208 2.8 2.8 0 0 0-.875-.125c-.625 0-1.125.208-1.458.583s-.5 1-.5 1.75v1.541h4.542V8.125L139 7.208v3.833h3.084v2.5H139v6.042c0 .792.167 1.334.417 1.667q.438.5 1.375.5.25 0 .625-.125c.25-.084.458-.167.625-.292v2.5c-.208.125-.5.209-.958.292a7 7 0 0 1-1.334.125q-1.937 0-2.875-1c-.625-.667-.958-1.709-.958-3.084zM15.667 0H1.417v14.25h14.25zm15.75 0h-14.25v14.25h14.25zm-15.75 15.75H1.417V30h14.25zm15.75 0h-14.25V30h14.25z"/></g><defs><clipPath id="microsoft-a"><path fill="#fff" d="M.5 0h142v30H.5z"/></clipPath></defs></svg>
