<svg width="101" height="30" viewBox="0 0 101 30" fill="none" xmlns="http://www.w3.org/2000/svg">
<g id="Frame" clip-path="url(#clip0_1538_16569)">
<path id="Vector" d="M62.6567 23.4609C56.8716 27.725 48.4865 30 41.2671 30C31.1444 30 22.0313 26.256 15.1368 20.0289C14.5952 19.5392 15.0805 18.8719 15.7305 19.2532C23.1709 23.5824 32.3707 26.1866 41.8738 26.1866C48.2829 26.1866 55.3333 24.8606 61.816 22.1089C62.7954 21.6929 63.6144 22.7503 62.6567 23.4609Z" fill="#FF9900"/>
<path id="Vector_2" d="M65.0617 20.7092C64.3251 19.7646 60.1737 20.2629 58.3103 20.4839C57.7426 20.5532 57.656 20.0592 58.1673 19.7039C61.4737 17.3769 66.8991 18.0485 67.5318 18.8285C68.1644 19.6129 67.3671 25.0513 64.2601 27.647C63.7834 28.0456 63.3284 27.8333 63.5407 27.3046C64.2384 25.5626 65.8027 21.6582 65.0617 20.7092Z" fill="#FF9900"/>
<path id="Vector_3" d="M58.4403 3.27593V1.0139C58.4403 0.671563 58.7003 0.441895 59.0123 0.441895H69.1394C69.4644 0.441895 69.7244 0.675897 69.7244 1.0139V2.95092C69.7201 3.27593 69.4471 3.7006 68.9618 4.37227L63.714 11.8647C65.6641 11.817 67.7224 12.1074 69.4904 13.104C69.8891 13.3294 69.9975 13.6587 70.0278 13.9837V16.3974C70.0278 16.7268 69.6638 17.1124 69.2824 16.9131C66.1667 15.2794 62.0284 15.1017 58.5833 16.9304C58.2323 17.1211 57.864 16.7398 57.864 16.4104V14.1181C57.864 13.7497 57.8683 13.1214 58.2367 12.5624L64.3164 3.8436H59.0253C58.7003 3.8436 58.4403 3.61393 58.4403 3.27593Z" fill="#221F1F"/>
<path id="Vector_4" d="M21.4983 17.3898H18.4172C18.1226 17.3681 17.8885 17.1471 17.8669 16.8654V1.05295C17.8669 0.736621 18.1312 0.485282 18.4606 0.485282H21.3336C21.6326 0.498274 21.8709 0.727951 21.8926 1.01395V3.08098H21.9489C22.6986 1.08328 24.1069 0.151611 26.005 0.151611C27.9333 0.151611 29.138 1.08328 30.0047 3.08098C30.75 1.08328 32.4444 0.151611 34.2601 0.151611C35.5514 0.151611 36.9641 0.684617 37.8264 1.88063C38.8014 3.21098 38.6021 5.14366 38.6021 6.83802L38.5978 16.8178C38.5978 17.1341 38.3334 17.3898 38.0041 17.3898H34.9274C34.6197 17.3681 34.3727 17.1211 34.3727 16.8178V8.43703C34.3727 7.76969 34.4334 6.10568 34.2861 5.473C34.0564 4.41133 33.3674 4.11232 32.4747 4.11232C31.7294 4.11232 30.9494 4.61066 30.633 5.408C30.3167 6.20534 30.347 7.54002 30.347 8.43703V16.8178C30.347 17.1341 30.0827 17.3898 29.7533 17.3898H26.6766C26.3646 17.3681 26.122 17.1211 26.122 16.8178L26.1176 8.43703C26.1176 6.67335 26.408 4.07765 24.2196 4.07765C22.0053 4.07765 22.0919 6.60835 22.0919 8.43703V16.8178C22.0919 17.1341 21.8276 17.3898 21.4983 17.3898Z" fill="#221F1F"/>
<path id="Vector_5" d="M78.4434 0.151611C83.0151 0.151611 85.4895 4.07765 85.4895 9.06971C85.4895 13.8927 82.7551 17.7191 78.4434 17.7191C73.954 17.7191 71.51 13.7931 71.51 8.90071C71.51 3.97798 73.9844 0.151611 78.4434 0.151611ZM78.4694 3.37998C76.1987 3.37998 76.0557 6.47401 76.0557 8.40237C76.0557 10.335 76.0254 14.4604 78.4434 14.4604C80.8311 14.4604 80.9438 11.1324 80.9438 9.10437C80.9438 7.76969 80.8874 6.17501 80.4844 4.90966C80.1378 3.80898 79.4488 3.37998 78.4694 3.37998Z" fill="#221F1F"/>
<path id="Vector_6" d="M91.4174 17.3898H88.3493C88.0417 17.3681 87.7946 17.1211 87.7946 16.8178L87.7903 1.00095C87.8163 0.710617 88.072 0.485282 88.384 0.485282H91.2397C91.5084 0.498274 91.7294 0.680285 91.79 0.927288V3.34531H91.8464C92.7087 1.18295 93.9177 0.151611 96.0454 0.151611C97.4278 0.151611 98.7754 0.649951 99.6421 2.01496C100.448 3.28031 100.448 5.408 100.448 6.93768V16.8914C100.414 17.1688 100.158 17.3898 99.8545 17.3898H96.7647C96.4831 17.3681 96.2491 17.1601 96.2187 16.8914V8.3027C96.2187 6.57368 96.4181 4.04298 94.2904 4.04298C93.5407 4.04298 92.8517 4.54566 92.5094 5.30833C92.076 6.27468 92.0197 7.23669 92.0197 8.3027V16.8178C92.0154 17.1341 91.7467 17.3898 91.4174 17.3898Z" fill="#221F1F"/>
<path id="Vector_7" d="M50.3672 9.83678V9.16944C48.1399 9.16944 45.7868 9.64611 45.7868 12.2721C45.7868 13.6025 46.4759 14.5038 47.6589 14.5038C48.5255 14.5038 49.3012 13.9708 49.7909 13.1041C50.3976 12.0381 50.3672 11.0371 50.3672 9.83678ZM53.4743 17.3465C53.2706 17.5285 52.9759 17.5415 52.7463 17.4202C51.7236 16.5709 51.5416 16.1765 50.9782 15.3662C49.2882 17.0909 48.0922 17.6065 45.8995 17.6065C43.3082 17.6065 41.2888 16.0075 41.2888 12.8051C41.2888 10.3048 42.6451 8.60176 44.5735 7.76975C46.2462 7.03308 48.5819 6.90308 50.3672 6.69941V6.30074C50.3672 5.56839 50.4236 4.70172 49.9946 4.06905C49.6176 3.50137 48.8982 3.26737 48.2655 3.26737C47.0912 3.26737 46.0425 3.86971 45.7868 5.11772C45.7348 5.39506 45.5312 5.66806 45.2538 5.68106L42.2638 5.36039C42.0125 5.30406 41.7351 5.10039 41.8045 4.71472C42.4935 1.09201 45.7652 0 48.6946 0C50.1939 0 52.1526 0.398671 53.3356 1.53402C54.8349 2.9337 54.6919 4.80139 54.6919 6.83374V11.6351C54.6919 13.0781 55.29 13.7108 55.8533 14.4908C56.0526 14.7682 56.096 15.1018 55.8446 15.3098C55.2163 15.8342 54.0983 16.8092 53.4829 17.3552L53.4743 17.3465Z" fill="#221F1F"/>
<path id="Vector_8" d="M9.97589 9.83678V9.16944C7.74853 9.16944 5.39551 9.64611 5.39551 12.2721C5.39551 13.6025 6.08452 14.5038 7.26753 14.5038C8.13421 14.5038 8.90988 13.9708 9.39955 13.1041C10.0062 12.0381 9.97589 11.0371 9.97589 9.83678ZM13.0829 17.3465C12.8793 17.5285 12.5846 17.5415 12.3549 17.4202C11.3322 16.5709 11.1502 16.1765 10.5869 15.3662C8.89688 17.0909 7.70087 17.6065 5.50818 17.6065C2.91681 17.6065 0.897461 16.0075 0.897461 12.8051C0.897461 10.3048 2.25381 8.60176 4.18216 7.76975C5.85485 7.03308 8.19054 6.90308 9.97589 6.69941V6.30074C9.97589 5.56839 10.0322 4.70172 9.60322 4.06905C9.22622 3.50137 8.50688 3.26737 7.8742 3.26737C6.69986 3.26737 5.65118 3.86971 5.39551 5.11772C5.34351 5.39506 5.13984 5.66806 4.8625 5.68106L1.87247 5.36039C1.62114 5.30406 1.3438 5.10039 1.41313 4.71472C2.10214 1.09201 5.37384 0 8.30321 0C9.80256 0 11.7612 0.398671 12.9443 1.53402C14.4436 2.9337 14.3006 4.80139 14.3006 6.83374V11.6351C14.3006 13.0781 14.8986 13.7108 15.462 14.4908C15.6613 14.7682 15.7046 15.1018 15.4533 15.3098C14.8249 15.8342 13.7069 16.8092 13.0916 17.3552L13.0829 17.3465Z" fill="#221F1F"/>
</g>
<defs>
<clipPath id="clip0_1538_16569">
<rect width="101" height="30" fill="white"/>
</clipPath>
</defs>
</svg>
